<svg xmlns="http://www.w3.org/2000/svg" version="1.1" xmlns:xlink="http://www.w3.org/1999/xlink" xmlns:svgjs="http://svgjs.dev/svgjs" width="128" height="128" viewBox="0 0 128 128"><g transform="matrix(0.6280487804878049,0,0,0.6280487804878049,23.805031915645472,12.5)"><svg viewBox="0 0 175 225" data-background-color="#051726" preserveAspectRatio="xMidYMid meet" height="164" width="128" xmlns="http://www.w3.org/2000/svg" xmlns:xlink="http://www.w3.org/1999/xlink"><g id="tight-bounds" transform="matrix(1,0,0,1,2.842170943040401e-14,0)"><svg viewBox="0 0 175 225" height="225" width="175"><g><svg></svg></g><g><svg viewBox="0 0 175 225" height="225" width="175"><g><path d="M72.846 46.72c0.67 0 1.213 0.543 1.213 1.212 0 0.67-0.543 1.213-1.213 1.213h-11.592l-8.346 8.345c-0.473 0.473-1.24 0.473-1.715 0-0.473-0.473-0.473-1.24 0-1.715l6.632-6.633h-19.628c-5.599 0-9.309 1.307-11.577 3.944-2.304 2.683-3.238 6.833-3.238 12.459 0 0.033 0 0.067-0.003 0.1l0.103 17.837 7.142-7.142c0.473-0.473 1.24-0.473 1.716 0 0.473 0.473 0.473 1.24 0 1.715l-8.836 8.837c0.1 17.419 0.094 34.689-0.006 52.107 12.389 12.25 24.606 24.458 36.853 36.844h12.337c0.67 0 1.213 0.543 1.213 1.213 0 0.67-0.543 1.213-1.213 1.212h-9.94l12.611 12.756 0.003-0.003c3.98 3.98 7.572 6.251 11.095 6.521 3.474 0.264 7.021-1.437 10.98-5.393l13.881-13.881h-10.074c-0.67 0-1.213-0.543-1.212-1.212 0-0.67 0.543-1.213 1.212-1.213h12.499l8.082-8.082c0.473-0.473 1.24-0.473 1.716 0 0.473 0.473 0.473 1.24 0 1.716l-6.369 6.369h19.628c5.599 0 9.309-1.307 11.577-3.944 2.304-2.683 3.238-6.833 3.238-12.459h0.006l-0.103-17.937-7.785 7.785c-0.473 0.473-1.24 0.473-1.716 0-0.473-0.473-0.473-1.24 0-1.716l9.479-9.479c-0.1-17.419-0.094-34.689 0.006-52.107-12.389-12.25-24.606-24.458-36.853-36.844h-12.71c-0.67 0-1.213-0.543-1.213-1.213 0-0.67 0.543-1.213 1.213-1.212h10.313l-12.554-12.699c-0.021-0.018-0.039-0.036-0.06-0.055-3.98-3.98-7.572-6.251-11.095-6.52-3.474-0.264-7.021 1.437-10.98 5.393l-13.881 13.881h9.167zM38.197 46.72h22.054l15.593-15.594c4.496-4.496 8.658-6.414 12.875-6.093 4.165 0.315 8.242 2.831 12.632 7.221 0.024 0.024 0.045 0.045 0.066 0.069l14.233 14.397h21.15c6.354 0 10.655 1.588 13.414 4.798 2.722 3.168 3.823 7.827 3.823 14.033 0 0.039-0.003 0.076-0.006 0.112l-0.11 19.319 13.821 13.666 0.003-0.003c4.389 4.389 6.906 8.464 7.221 12.632 0.321 4.217-1.601 8.379-6.094 12.874l-14.957 14.957 0.116 20.341h0.006c0 6.205-1.103 10.865-3.823 14.033-2.759 3.21-7.06 4.799-13.414 4.798h-22.054l-15.593 15.594c-4.496 4.496-8.658 6.414-12.875 6.093-4.165-0.315-8.242-2.831-12.632-7.221l0.003-0.003-14.302-14.466h-21.15c-6.354 0-10.655-1.588-13.414-4.798-2.722-3.168-3.823-7.827-3.823-14.033h0.006l0.113-19.431-13.754-13.596c-0.024-0.021-0.049-0.042-0.07-0.067-4.389-4.389-6.906-8.464-7.221-12.632-0.321-4.217 1.601-8.379 6.094-12.874l14.957-14.957-0.116-20.226c-0.003-0.036-0.006-0.076-0.006-0.112 0-6.205 1.103-10.865 3.823-14.033 2.759-3.21 7.06-4.799 13.414-4.798zM21.233 112.498l-0.133-23.199-13.26 13.259c-3.956 3.956-5.657 7.506-5.393 10.98 0.267 3.523 2.54 7.118 6.521 11.095 0.018 0.018 0.039 0.039 0.055 0.061l12.074 11.935 0.136-24.134zM23.479 142.388l-0.097 17.058h0.006c0 5.629 0.934 9.779 3.238 12.459 2.268 2.64 5.978 3.944 11.577 3.944h18.752l-16.309-16.497-17.164-16.967zM136.8 49.145h-18.752l16.309 16.497 17.164 16.967 0.097-16.958c-0.003-0.033-0.003-0.067-0.003-0.1 0-5.629-0.934-9.779-3.238-12.459-2.268-2.64-5.978-3.944-11.577-3.944zM153.903 88.365l-0.136 24.133 0.133 23.2 13.26-13.259c3.956-3.956 5.657-7.506 5.393-10.98-0.267-3.526-2.54-7.118-6.521-11.095l0.003-0.003-12.132-11.993z" fill="#000000" fill-rule="nonzero" stroke="none" stroke-width="1" stroke-linecap="butt" stroke-linejoin="miter" stroke-miterlimit="10" stroke-dasharray="" stroke-dashoffset="0" font-family="none" font-weight="none" font-size="none" text-anchor="none" style="mix-blend-mode: normal" data-fill-palette-color="tertiary"></path></g><g transform="matrix(1,0,0,1,60.4625,80.9649661508704)"><svg viewBox="0 0 54.075 63.070067698259194" height="63.070067698259194" width="54.075"><g><svg viewBox="0 0 54.075 63.070067698259194" height="63.070067698259194" width="54.075"><g><svg viewBox="0 0 54.075 63.070067698259194" height="63.070067698259194" width="54.075"><g id="textblocktransform"><svg viewBox="0 0 54.075 63.070067698259194" height="63.070067698259194" width="54.075" id="textblock"><g><svg viewBox="0 0 54.075 63.070067698259194" height="63.070067698259194" width="54.075"><g transform="matrix(1,0,0,1,0,0)"><svg width="54.075" viewBox="-1.5666666666650002 -38.15 35.466666666665 41.2" height="63.070067698259194" data-palette-color="#ffffff"><path d="M15.5-31.35L16.4-31.15 4.25-0.95Q4.05-0.45 3.7-0.2 3.35 0.05 2.9 0.05L2.9 0.05Q2.2 0.05 1.85-0.33 1.5-0.7 1.45-1.25L1.45-1.25Q1.4-1.5 1.5-1.85L1.5-1.85 14.7-34.15Q14.95-34.7 15.33-34.93 15.7-35.15 16.2-35.15L16.2-35.15Q16.7-35.15 17.07-34.88 17.45-34.6 17.65-34.15L17.65-34.15 30.8-2Q30.9-1.7 30.9-1.4L30.9-1.4Q30.9-0.7 30.45-0.33 30 0.05 29.4 0.05L29.4 0.05Q28.9 0.05 28.53-0.23 28.15-0.5 27.95-0.95L27.95-0.95 15.5-31.35ZM24.5-10.1L7.15-10.1 8.4-13.05 23.9-13.05 24.5-10.1Z" opacity="1" transform="matrix(1,0,0,1,0,0)" fill="#000000" class="wordmark-text-0" data-fill-palette-color="primary" id="text-0"></path></svg></g></svg></g></svg></g></svg></g><g></g></svg></g></svg></g></svg></g><defs></defs></svg><rect width="175" height="225" fill="none" stroke="none" visibility="hidden"></rect></g></svg></g></svg>